<?xml version="1.0" encoding="utf-8"?>
<!-- Generator: Adobe Illustrator 19.2.1, SVG Export Plug-In . SVG Version: 6.00 Build 0)  -->
<svg version="1.1" id="Layer_1" xmlns="http://www.w3.org/2000/svg" xmlns:xlink="http://www.w3.org/1999/xlink" x="0px" y="0px"
	 viewBox="0 0 720 720" style="enable-background:new 0 0 720 720;" xml:space="preserve">
<style type="text/css">
	.st0{display:none;}
	.st1{display:inline;fill:none;stroke:#EC008C;stroke-miterlimit:10;}
	.st2{display:inline;}
	.st3{fill:none;}
	.st4{fill:none;stroke:#EC008C;stroke-miterlimit:10;}
	.st5{display:inline;fill:none;stroke:#000000;stroke-miterlimit:10;}
	.st6{display:inline;fill:#D5D7D8;}
	.st7{stroke:#000000;stroke-linecap:round;stroke-linejoin:round;stroke-miterlimit:10;}
</style>
<g id="Layer_1_1_" class="st0">
	<path class="st1" d="M592.5,146.5c-14.6,0-168-30.8-232.9-74.1c-64.9,43.2-218.3,74.1-232.9,74.1c-0.8,126.6-0.2,373.4,232.9,501.1
		C592.7,519.8,593.3,273.1,592.5,146.5z"/>
	<path class="st1" d="M523.2,210c-10.3,0-118.1-21.7-163.7-52.1C313.9,188.3,206.1,210,195.8,210c-0.6,89-0.1,262.4,163.7,352.1
		C523.4,472.3,523.8,298.9,523.2,210z"/>
	<line class="st1" x1="424.6" y1="72.4" x2="424.6" y2="684.4"/>
	<line class="st1" x1="361" y1="72.4" x2="361" y2="684.4"/>
	<line class="st1" x1="299.1" y1="72.4" x2="299.1" y2="684.4"/>
	<line class="st1" x1="698.8" y1="315.1" x2="86.8" y2="315.1"/>
	<line class="st1" x1="698.8" y1="251.5" x2="86.8" y2="251.5"/>
	<line class="st1" x1="689.8" y1="378.7" x2="77.8" y2="378.7"/>
	<line class="st1" x1="689.8" y1="315.1" x2="77.8" y2="315.1"/>
	<line class="st1" x1="517.1" y1="72.4" x2="517.1" y2="684.4"/>
	<line class="st1" x1="453.5" y1="72.4" x2="453.5" y2="684.4"/>
</g>
<g id="Layer_6" class="st0">
	<g class="st2">
		<path class="st3" d="M523.2,210c-10.2,0-115.8-21.2-162.2-51.1v402.4C523.3,471.3,523.8,298.7,523.2,210z"/>
		<path class="st3" d="M195.8,210c-0.6,89-0.1,262.4,163.7,352.1c0.5-0.3,1-0.5,1.5-0.8V158.9c-0.5-0.3-1-0.6-1.5-1
			C313.9,188.3,206.1,210,195.8,210z"/>
	</g>
	<path class="st1" d="M359.5,562.1C195.7,472.3,195.3,298.9,195.8,210c10.3,0,118.1-21.7,163.7-52.1c0.5,0.3,1,0.6,1.5,1V73.4
		c-0.5-0.3-1-0.6-1.5-1c-64.9,43.2-218.3,74.1-232.9,74.1c-0.8,126.6-0.2,373.4,232.9,501.1c0.5-0.3,1-0.5,1.5-0.8v-85.5
		C360.5,561.6,360,561.8,359.5,562.1z"/>
	<g class="st2">
		<path class="st4" d="M299.1,608.1v76.3h125.5v-79.9c-19.4,15.5-41,29.9-65.1,43.1C337.3,635.4,317.3,622.2,299.1,608.1z"/>
		<path class="st4" d="M299.1,72.4v29.3c23.2-8.8,44.5-18.7,60.4-29.3C359.5,72.4,299.1,72.4,299.1,72.4z"/>
		<path class="st4" d="M424.6,72.4h-65.1c17,11.3,40,21.8,65.1,31.1V72.4z"/>
		<path class="st4" d="M126.6,146.5c-0.7,114.6-0.3,327.5,172.5,461.6V101.7C227.7,128.9,137.6,146.5,126.6,146.5z"/>
		<path class="st4" d="M592.5,146.5c-10.8,0-97.2-16.8-167.9-43v501C592.8,470.1,593.2,260,592.5,146.5z"/>
	</g>
	<path class="st1" d="M359.5,72.4c-15.9,10.6-37.2,20.5-60.4,29.3v506.4c18.2,14.1,38.2,27.3,60.4,39.5c0.5-0.3,1-0.5,1.5-0.8V73.4
		C360.5,73,360,72.7,359.5,72.4z"/>
	<path class="st1" d="M424.6,103.5c-24.3-9-46.8-19.2-63.6-30.1v573.4c23.5-13,44.6-27.2,63.6-42.3V103.5z"/>
	<path class="st1" d="M523,251.5h66.9c2.9-39.5,2.8-75.5,2.6-105c-14.5,0-165.7-30.4-231.5-73.1v85.5
		c46.4,29.9,152.1,51.1,162.2,51.1C523.3,222.3,523.4,236.3,523,251.5z"/>
	<path class="st1" d="M453.5,315.1v63.6H569c5.9-21.4,10.3-42.7,13.6-63.6H453.5z"/>
	<path class="st1" d="M518.2,315.1C507,400.4,471.5,500,361,561.3v85.5c149.6-82.7,202.9-214.6,221.6-331.7L518.2,315.1L518.2,315.1
		z"/>
</g>
<g id="Layer_3" class="st0">
	<g class="st2">
		<line class="st3" x1="120.1" y1="632.6" x2="609.1" y2="94.3"/>
		<path d="M119.7,632.3c0,0,1.5-2.5,4.4-7c1.5-2.3,3.2-5.1,5.4-8.3c2.1-3.3,4.6-7,7.4-11.2c1.4-2.1,2.9-4.3,4.4-6.6
			c1.6-2.3,3.2-4.7,4.9-7.2s3.5-5.1,5.4-7.8s3.8-5.4,5.9-8.3c8-11.4,17.3-24.1,27.6-37.8c20.5-27.4,45.1-58.8,72.2-91.8
			c13.6-16.5,27.7-33.4,42.3-50.3c14.6-17,29.6-34.1,44.7-51c15.2-16.9,30.5-33.7,45.8-50.1c15.3-16.3,30.6-32.2,45.6-47.3
			c30-30.3,58.9-57.8,84.4-80.7c12.7-11.5,24.6-21.8,35.3-30.8c10.6-9,20.2-16.7,28-23c7.9-6.3,14.2-11.1,18.6-14.3
			c4.3-3.2,6.7-4.9,6.7-4.9l0.7,0.7c0,0-1.4,2.5-4.2,7.2s-7,11.4-12.5,19.8s-12.2,18.6-20.2,30.1s-17.1,24.3-27.3,38.1
			c-20.4,27.6-44.9,59-72.2,91.8c-13.6,16.4-28,33.1-42.7,49.9c-14.8,16.8-30,33.6-45.4,50.4c-15.4,16.7-31,33.2-46.5,49.4
			c-15.5,16.2-30.9,31.9-46,46.9c-30.2,30.1-59.1,57.6-84.5,80.6c-12.7,11.5-24.4,22-35,31c-2.6,2.3-5.2,4.5-7.7,6.6
			s-4.9,4.1-7.2,6.1c-2.3,1.9-4.5,3.8-6.6,5.6s-4.2,3.4-6.1,5c-3.9,3.2-7.4,6-10.4,8.5s-5.7,4.5-7.8,6.2c-4.3,3.3-6.6,5.1-6.6,5.1
			L119.7,632.3z"/>
	</g>
	<line class="st5" x1="145.2" y1="696" x2="552.6" y2="33"/>
	<rect x="594.6" y="33" class="st2" width="71.9" height="299.5"/>
</g>
<image style="overflow:visible;enable-background:new    ;" width="846" height="387" xlink:href="fatima.png"  transform="matrix(0.76 0 0 0.76 38.5385 164.0016)">
</image>
<g id="Layer_5" class="st0">
	<rect class="st6" width="720" height="720"/>
</g>
<g id="Layer_4" class="st0">
	<g class="st2">
		<path class="st7" d="M560,12l-78.9,120.4c11.2,3.3,22.3,6.3,32.9,9.1L560,12z"/>
		<path class="st7" d="M230,696.3l50.1-76.5c-6-5.2-11.8-10.5-17.4-15.9L230,696.3z"/>
		<path d="M359,672.3c0.4-0.2,0.8-0.5,1.3-0.7c-0.4-0.2-0.8-0.5-1.3-0.7V672.3z"/>
		<path d="M587.9,277c2.9-39.5,2.8-75.5,2.6-105c-6.2,0-37-5.5-75.4-15c-2-0.5-4-1-6-1.5c-11.7-3-24-6.3-36.5-10
			c-7-2.1-14.1-4.2-21.1-6.5c-9.8-3.1-19.5-6.5-28.9-10c-24.3-9-46.8-19.2-63.6-30.1v85.5V277v63.6l0,0v63.6v21.7v73.6v87.3v84.1
			c0.4,0.2,0.8,0.5,1.3,0.7c23-12.8,43.7-26.7,62.3-41.6c10.2-8.2,19.9-16.6,28.9-25.3c25.6-24.7,46.5-51.3,63.6-78.9
			c24.2-39.2,40.7-80.5,51.9-121.5c5.9-21.4,10.3-42.7,13.6-63.6l0,0h-64.4h-1.1h-63.6l0,0v63.6h51.7
			c-10.3,35.6-26.5,71.4-51.7,104.1c-8.6,11.1-18.1,21.9-28.9,32.1V404.2v-63.6l0,0v-62.4V277v-55.3v-9.8c1.8,0.6,3.5,1.1,5.3,1.7
			c7.9,2.5,15.9,4.8,23.6,6.9c11.3,3.1,22.1,5.7,31.7,7.9c13.8,3.1,25.1,5.3,31.9,6.3c3,0.4,5.1,0.7,6.1,0.7
			c0.1,12.4,0.1,26.4-0.3,41.5h67V277z"/>
		<path d="M193.8,235.5c-0.1,11.8-0.1,25.1,0.2,39.5c0,0.7,0,1.3,0,2c0.5,19,1.7,39.8,4.5,61.6l0,0c0.1,0.7,0.2,1.3,0.2,2l0,0
			c2.7,20.6,6.8,42.1,13.1,63.6c13.3,45.6,36.1,91.6,75.3,131c3.2,3.2,6.5,6.4,9.9,9.5v-37.4V404.2v-63.6l0,0V277v-66.6
			C250.9,225.8,200.7,235.5,193.8,235.5z"/>
	</g>
</g>
</svg>
